<svg xmlns="http://www.w3.org/2000/svg" viewBox="0 0 512 512">
  <defs>
    <linearGradient id="bg" x1="0" y1="0" x2="1" y2="1">
      <stop offset="0" stop-color="#161d36"/>
      <stop offset="1" stop-color="#070a18"/>
    </linearGradient>
    <radialGradient id="label" cx="0.35" cy="0.35" r="1">
      <stop offset="0" stop-color="#ffd27a"/>
      <stop offset="1" stop-color="#d97a1e"/>
    </radialGradient>
  </defs>
  <rect width="512" height="512" rx="96" fill="url(#bg)"/>
  <circle cx="256" cy="256" r="196" fill="#0a0a10"/>
  <circle cx="256" cy="256" r="196" fill="none" stroke="#2a2a38" stroke-width="2"/>
  <g stroke="#ffffff" opacity="0.04" fill="none">
    <circle cx="256" cy="256" r="152" stroke-width="2"/>
    <circle cx="256" cy="256" r="140" stroke-width="2"/>
    <circle cx="256" cy="256" r="128" stroke-width="2"/>
    <circle cx="256" cy="256" r="116" stroke-width="2"/>
    <circle cx="256" cy="256" r="104" stroke-width="2"/>
  </g>
  <path d="M108 198 A196 196 0 0 1 256 60" fill="none" stroke="#ffffff" stroke-width="12" stroke-linecap="round" opacity="0.06"/>
  <circle cx="256" cy="256" r="76" fill="url(#label)"/>
  <circle cx="256" cy="256" r="76" fill="none" stroke="#ffd27a" stroke-opacity="0.35" stroke-width="1.5"/>
  <circle cx="256" cy="256" r="54" fill="#b85c14" opacity="0.18"/>
  <path d="M256 214 a42 42 0 0 1 0 84" fill="none" stroke="#ffffff" stroke-opacity="0.25" stroke-width="6" stroke-linecap="round"/>
  <circle cx="256" cy="256" r="13" fill="#0a0a10"/>
</svg>